<svg id="svg" version="1.1" xmlns="http://www.w3.org/2000/svg" xmlns:xlink="http://www.w3.org/1999/xlink" width="400" height="443.22916666666663" viewBox="0, 0, 400,443.22916666666663"><g id="svgg"><path id="path0" d="M273.600 19.150 C 273.600 20.749,275.659 28.542,277.421 33.611 C 284.094 52.813,297.639 71.083,313.696 82.541 C 317.675 85.380,319.967 86.013,317.707 83.649 C 317.068 82.980,316.107 81.854,315.573 81.145 C 315.038 80.437,314.195 79.369,313.700 78.771 C 313.205 78.173,312.800 77.599,312.800 77.495 C 312.800 77.320,309.581 72.307,308.886 71.400 C 308.718 71.180,307.519 69.110,306.222 66.800 C 304.925 64.490,303.740 62.510,303.590 62.400 C 303.439 62.290,303.083 61.480,302.799 60.600 C 302.515 59.720,301.949 58.373,301.541 57.606 C 301.134 56.839,300.803 56.029,300.807 55.806 C 300.817 55.200,298.644 48.632,298.357 48.400 C 298.040 48.144,296.525 41.615,295.759 37.200 C 295.434 35.330,294.978 33.159,294.745 32.375 C 294.512 31.592,294.204 28.082,294.061 24.575 L 293.800 18.200 283.700 18.093 L 273.600 17.986 273.600 19.150 M374.587 118.900 C 374.483 119.175,374.354 132.090,374.299 147.600 L 374.200 175.800 367.200 175.701 C 337.411 175.278,304.695 164.785,277.518 146.938 C 274.722 145.102,272.346 143.600,272.237 143.600 C 272.128 143.600,271.972 179.285,271.892 222.900 C 271.730 310.418,271.841 306.467,269.187 319.395 C 253.298 396.781,177.635 443.956,100.200 424.754 C 89.179 422.021,78.427 417.756,67.882 411.933 C 59.550 407.333,62.280 411.047,73.148 419.098 C 73.669 419.484,74.392 420.070,74.755 420.400 C 76.333 421.836,78.749 423.600,79.138 423.600 C 79.370 423.600,79.704 423.826,79.880 424.101 C 80.056 424.377,80.965 425.097,81.900 425.701 C 82.835 426.306,84.275 427.240,85.100 427.777 C 91.328 431.832,111.287 441.200,113.700 441.200 C 113.997 441.200,114.411 441.360,114.620 441.555 C 116.268 443.094,119.029 443.200,157.568 443.200 C 196.001 443.200,198.344 443.112,200.200 441.603 C 200.420 441.425,201.410 441.068,202.400 440.811 C 204.388 440.295,209.172 438.482,209.800 438.007 C 210.020 437.841,210.875 437.487,211.700 437.221 C 212.525 436.955,213.200 436.572,213.200 436.369 C 213.200 436.166,213.424 436.000,213.698 436.000 C 214.379 436.000,223.367 431.555,223.533 431.136 C 223.607 430.951,223.840 430.800,224.052 430.800 C 224.264 430.800,225.790 430.035,227.444 429.100 C 229.097 428.165,230.888 427.165,231.425 426.878 C 231.961 426.591,232.400 426.186,232.400 425.978 C 232.400 425.770,232.626 425.600,232.903 425.600 C 233.179 425.600,235.024 424.333,237.003 422.785 C 241.485 419.277,242.060 418.839,243.823 417.600 C 244.605 417.050,245.970 415.925,246.855 415.100 C 247.741 414.275,248.586 413.583,248.733 413.562 C 248.880 413.541,249.990 412.416,251.200 411.062 C 252.410 409.708,254.516 407.610,255.881 406.400 C 257.245 405.190,258.370 404.079,258.381 403.932 C 258.391 403.784,259.132 402.884,260.026 401.932 C 262.617 399.174,262.800 398.952,262.800 398.581 C 262.800 398.387,263.164 397.862,263.609 397.414 C 264.054 396.966,264.959 395.880,265.621 395.000 C 267.099 393.034,268.377 391.404,269.300 390.308 C 269.685 389.851,270.000 389.353,270.000 389.201 C 270.000 389.049,270.450 388.401,271.000 387.762 C 271.549 387.123,271.999 386.375,272.000 386.100 C 272.000 385.825,272.135 385.598,272.300 385.597 C 272.465 385.595,273.320 384.200,274.200 382.497 C 275.080 380.793,275.907 379.310,276.038 379.200 C 276.361 378.929,277.078 377.583,279.149 373.364 C 283.441 364.618,284.990 361.123,285.603 358.800 C 285.864 357.810,286.218 356.820,286.388 356.600 C 286.720 356.173,287.676 352.762,288.744 348.200 C 289.105 346.660,289.514 345.220,289.653 345.000 C 289.792 344.780,290.135 343.250,290.416 341.600 C 290.696 339.950,291.073 338.306,291.252 337.947 C 291.666 337.117,292.800 328.033,292.800 325.545 C 292.800 324.398,292.995 323.602,293.300 323.500 C 293.697 323.368,293.826 306.989,293.925 243.833 C 294.042 169.423,294.093 164.351,294.725 164.612 C 295.096 164.765,295.715 164.981,296.100 165.092 C 296.485 165.203,296.800 165.440,296.800 165.620 C 296.800 165.799,297.159 166.060,297.598 166.199 C 298.036 166.338,298.621 166.676,298.898 166.950 C 299.458 167.506,304.341 170.718,306.200 171.755 C 306.860 172.123,308.840 173.237,310.600 174.230 C 312.360 175.224,314.430 176.312,315.200 176.649 C 315.970 176.985,317.332 177.607,318.226 178.030 C 319.121 178.454,320.044 178.800,320.277 178.800 C 320.511 178.800,320.910 179.050,321.163 179.356 C 321.417 179.661,322.429 180.114,323.412 180.361 C 324.395 180.609,325.200 180.989,325.200 181.206 C 325.200 181.423,325.382 181.600,325.604 181.600 C 325.827 181.600,326.772 181.947,327.704 182.372 C 330.475 183.632,334.469 185.127,336.500 185.664 C 337.545 185.940,338.400 186.302,338.400 186.467 C 338.400 186.633,339.480 186.992,340.800 187.264 C 342.120 187.537,343.200 187.879,343.200 188.025 C 343.200 188.171,344.325 188.522,345.700 188.805 C 347.075 189.088,348.481 189.460,348.825 189.633 C 349.168 189.806,351.328 190.254,353.625 190.630 C 355.921 191.005,357.983 191.454,358.207 191.628 C 358.431 191.802,360.231 192.167,362.207 192.439 C 364.183 192.711,365.890 193.063,366.000 193.222 C 366.183 193.485,372.608 194.316,381.200 195.186 C 383.070 195.375,387.256 195.546,390.502 195.565 L 396.404 195.600 396.302 158.100 L 396.200 120.600 393.200 120.500 C 388.158 120.331,377.435 119.195,377.026 118.786 C 376.472 118.232,374.809 118.310,374.587 118.900 M154.500 175.865 C 154.106 176.024,154.000 182.245,154.000 205.086 L 154.000 234.105 152.700 233.868 C 151.985 233.738,149.690 233.253,147.600 232.791 C 124.029 227.578,97.568 238.818,84.083 259.771 C 66.373 287.287,73.443 324.981,99.815 343.655 C 106.171 348.156,109.783 349.381,107.023 346.100 C 106.460 345.431,106.000 344.783,106.000 344.660 C 106.000 344.445,104.355 341.833,103.694 341.000 C 103.112 340.265,101.292 336.219,100.815 334.600 C 100.556 333.720,100.193 332.640,100.009 332.200 C 99.825 331.760,99.450 330.500,99.175 329.400 C 98.900 328.300,98.538 327.218,98.369 326.996 C 96.346 324.337,96.359 299.136,98.384 296.604 C 98.562 296.382,98.838 295.570,98.998 294.800 C 100.234 288.844,104.373 280.622,109.065 274.800 C 114.124 268.523,114.543 268.102,119.800 264.026 C 125.323 259.744,125.342 259.731,126.300 259.429 C 126.795 259.274,127.200 258.998,127.200 258.816 C 127.200 258.635,127.875 258.196,128.700 257.841 C 129.525 257.487,130.470 257.028,130.800 256.822 C 133.348 255.236,138.216 253.609,144.200 252.343 C 153.962 250.279,160.590 250.289,170.400 252.381 C 172.490 252.827,174.695 253.194,175.300 253.196 L 176.400 253.200 176.400 215.034 L 176.400 176.867 171.991 176.582 C 169.567 176.425,167.486 176.139,167.368 175.948 C 167.144 175.586,155.379 175.510,154.500 175.865 " stroke="none" fill="#fb2c53" fill-rule="evenodd"></path><path id="path1" d="M197.105 151.339 C 197.030 259.856,196.877 302.836,196.564 303.239 C 196.324 303.547,195.903 305.104,195.628 306.699 C 195.353 308.293,194.984 309.686,194.809 309.794 C 194.634 309.903,194.364 310.668,194.210 311.496 C 194.055 312.323,193.500 313.940,192.975 315.089 C 192.450 316.238,191.906 317.633,191.767 318.189 C 191.627 318.745,191.367 319.200,191.188 319.200 C 191.009 319.200,190.645 319.875,190.379 320.700 C 190.113 321.525,189.715 322.427,189.495 322.704 C 188.944 323.399,187.701 325.555,187.019 327.000 C 186.707 327.660,185.929 328.765,185.290 329.455 C 184.650 330.145,183.424 331.574,182.564 332.630 C 180.079 335.681,174.755 340.770,172.900 341.869 C 171.965 342.423,171.200 343.039,171.200 343.238 C 171.200 343.437,171.032 343.600,170.827 343.600 C 170.450 343.600,166.371 345.995,166.000 346.434 C 165.890 346.565,165.035 347.005,164.100 347.413 C 163.165 347.820,162.400 348.271,162.400 348.414 C 162.400 348.557,161.680 348.889,160.800 349.153 C 159.920 349.416,159.200 349.789,159.200 349.981 C 159.200 350.173,158.509 350.446,157.664 350.589 C 156.819 350.732,155.653 351.095,155.074 351.396 C 154.494 351.696,152.710 352.242,151.110 352.608 C 149.509 352.974,147.768 353.482,147.240 353.736 C 145.960 354.354,125.937 354.366,125.149 353.750 C 124.847 353.514,123.025 352.983,121.100 352.571 C 119.175 352.158,117.600 351.709,117.600 351.574 C 117.600 351.438,116.610 351.090,115.400 350.800 C 114.190 350.510,113.200 350.157,113.200 350.016 C 113.200 349.876,112.532 349.519,111.715 349.224 C 110.898 348.928,109.985 348.442,109.686 348.143 C 109.022 347.480,107.600 347.425,107.600 348.064 C 107.600 349.626,115.109 357.604,120.000 361.239 C 156.880 388.643,206.844 369.980,218.087 324.600 L 218.979 321.000 219.094 170.021 C 219.184 50.448,219.311 18.977,219.704 18.727 C 219.977 18.554,232.204 18.409,246.876 18.406 C 262.611 18.403,273.646 18.250,273.779 18.033 C 273.904 17.831,273.826 16.436,273.605 14.933 C 273.385 13.430,273.086 9.455,272.940 6.100 L 272.675 0.000 234.942 0.000 L 197.209 0.000 197.105 151.339 M319.101 86.100 C 319.722 88.575,332.510 99.709,340.815 105.006 C 350.585 111.237,368.429 118.400,374.181 118.400 L 375.217 118.400 375.108 110.300 L 375.000 102.200 372.600 102.093 C 371.280 102.035,369.840 101.828,369.400 101.635 C 368.960 101.442,365.521 101.103,361.759 100.882 C 357.996 100.661,354.576 100.294,354.159 100.067 C 353.741 99.839,352.230 99.444,350.800 99.189 C 349.370 98.934,348.020 98.585,347.800 98.415 C 347.580 98.244,346.410 97.878,345.200 97.602 C 343.990 97.325,342.235 96.757,341.300 96.339 C 340.365 95.922,339.060 95.472,338.400 95.340 C 337.740 95.208,337.200 94.942,337.200 94.750 C 337.200 94.558,337.020 94.400,336.801 94.400 C 336.383 94.400,331.864 92.423,329.800 91.337 C 323.562 88.056,321.622 86.971,320.527 86.152 C 318.954 84.976,318.818 84.971,319.101 86.100 M127.038 156.738 C 126.923 156.924,124.751 157.195,122.211 157.340 C 117.159 157.629,112.473 158.215,110.600 158.794 C 109.940 158.997,108.050 159.431,106.400 159.758 C 102.224 160.584,97.839 161.722,97.600 162.040 C 97.490 162.187,96.320 162.527,95.000 162.797 C 93.680 163.066,92.420 163.424,92.200 163.591 C 91.980 163.758,90.854 164.117,89.699 164.388 C 88.543 164.659,87.496 165.045,87.371 165.247 C 87.247 165.448,86.977 165.509,86.772 165.383 C 86.568 165.256,86.400 165.323,86.400 165.532 C 86.400 165.740,85.725 166.034,84.900 166.185 C 84.075 166.336,83.040 166.690,82.600 166.972 C 82.160 167.253,80.271 168.156,78.402 168.976 C 76.534 169.797,74.914 170.599,74.802 170.757 C 74.691 170.916,73.970 171.295,73.200 171.600 C 72.430 171.905,71.710 172.280,71.600 172.432 C 71.490 172.585,70.770 173.002,70.000 173.358 C 69.230 173.714,67.880 174.448,67.000 174.988 C 66.120 175.529,64.947 176.202,64.393 176.485 C 63.406 176.990,57.593 180.798,57.200 181.197 C 57.090 181.309,56.528 181.670,55.951 182.000 C 54.586 182.781,52.364 184.577,50.137 186.700 C 49.156 187.635,48.185 188.400,47.980 188.400 C 47.775 188.400,47.382 188.760,47.107 189.200 C 46.832 189.640,46.376 190.000,46.093 190.000 C 45.810 190.000,43.215 192.385,40.327 195.300 C 32.269 203.433,31.200 204.582,31.200 205.110 C 31.200 205.380,31.040 205.600,30.845 205.600 C 30.433 205.600,24.800 212.958,24.800 213.496 C 24.800 213.693,24.185 214.546,23.434 215.390 C 22.683 216.235,21.828 217.392,21.534 217.963 C 21.240 218.533,20.365 219.990,19.589 221.200 C 17.547 224.384,17.271 224.848,16.498 226.400 C 16.114 227.170,15.603 228.010,15.363 228.266 C 15.122 228.522,14.682 229.332,14.385 230.066 C 14.088 230.800,13.735 231.490,13.600 231.600 C 13.465 231.710,13.119 232.430,12.830 233.200 C 12.229 234.806,11.636 236.216,10.442 238.878 C 9.979 239.911,9.600 240.851,9.600 240.966 C 9.600 241.082,9.150 242.160,8.600 243.363 C 8.050 244.565,7.599 245.785,7.598 246.074 C 7.596 246.363,7.361 247.050,7.076 247.600 C 6.790 248.150,6.309 249.500,6.008 250.600 C 5.706 251.700,5.334 252.690,5.181 252.800 C 4.869 253.024,3.935 256.638,2.647 262.600 C 2.172 264.800,1.662 266.791,1.515 267.024 C -0.487 270.189,-0.418 317.222,1.591 318.800 C 1.731 318.910,2.083 320.530,2.374 322.400 C 2.664 324.270,3.121 326.340,3.388 327.000 C 3.655 327.660,4.106 329.171,4.391 330.358 C 4.675 331.545,5.152 332.985,5.451 333.558 C 5.750 334.131,5.997 334.960,6.000 335.400 C 6.003 335.840,6.271 336.710,6.596 337.333 C 6.921 337.957,7.387 339.217,7.631 340.133 C 7.875 341.050,8.304 342.070,8.583 342.400 C 8.863 342.730,9.220 343.534,9.376 344.187 C 9.532 344.840,10.110 346.370,10.662 347.587 C 11.213 348.804,11.816 350.160,12.000 350.600 C 12.894 352.729,15.342 357.823,15.557 358.002 C 15.691 358.113,16.413 359.365,17.162 360.785 C 17.910 362.204,18.676 363.553,18.863 363.783 C 19.050 364.012,19.865 365.190,20.675 366.400 C 21.485 367.610,22.384 368.838,22.674 369.129 C 22.963 369.419,23.200 369.797,23.200 369.967 C 23.200 370.138,23.560 370.693,24.000 371.200 C 24.440 371.707,24.800 372.352,24.800 372.633 C 24.800 372.913,25.025 373.381,25.300 373.671 C 25.575 373.962,26.609 375.264,27.599 376.565 C 28.588 377.866,30.253 379.817,31.299 380.902 C 32.344 381.987,33.200 382.956,33.200 383.055 C 33.200 383.153,33.995 384.081,34.967 385.117 C 35.938 386.153,37.506 387.871,38.449 388.934 C 39.393 389.998,41.613 392.056,43.383 393.506 C 45.152 394.956,46.780 396.348,47.000 396.599 C 47.220 396.849,48.615 398.082,50.100 399.337 C 53.946 402.590,53.580 401.314,48.866 395.038 C 22.841 360.386,14.623 318.661,25.659 277.200 C 40.473 221.541,91.385 179.965,148.413 176.954 C 155.361 176.587,154.800 177.471,154.800 166.881 L 154.800 158.105 153.300 157.855 C 152.475 157.717,149.775 157.486,147.300 157.341 C 144.825 157.197,142.800 156.926,142.800 156.739 C 142.800 156.296,127.312 156.296,127.038 156.738 " stroke="none" fill="#23f2ea" fill-rule="evenodd"></path><path id="path2" d="M219.704 18.727 C 219.311 18.977,219.184 50.448,219.094 170.021 L 218.979 321.000 218.087 324.600 C 209.526 359.154,178.260 379.561,144.600 372.564 C 130.992 369.735,115.791 360.221,108.831 350.176 C 107.903 348.838,106.847 347.904,105.558 347.283 C 87.707 338.683,74.310 315.581,74.310 293.400 C 74.310 254.563,110.545 224.597,147.600 232.791 C 149.690 233.253,151.985 233.738,152.700 233.868 L 154.000 234.105 154.000 205.391 L 154.000 176.678 148.565 176.951 C 99.318 179.423,52.953 211.571,32.762 257.247 C 12.403 303.302,18.381 354.447,48.866 395.038 C 51.030 397.918,52.800 400.573,52.800 400.938 C 52.800 401.302,52.991 401.600,53.224 401.600 C 53.457 401.600,53.555 401.750,53.442 401.932 C 53.178 402.359,58.285 407.210,59.828 407.999 C 60.473 408.329,61.144 408.824,61.320 409.099 C 61.496 409.375,62.093 409.600,62.648 409.600 C 63.203 409.600,65.579 410.661,67.928 411.959 C 75.658 416.227,82.761 419.341,91.200 422.160 C 119.659 431.670,155.646 431.008,183.200 420.468 C 228.077 403.302,259.556 366.300,269.187 319.395 C 271.841 306.467,271.730 310.418,271.892 222.900 C 271.972 179.285,272.128 143.600,272.237 143.600 C 272.346 143.600,274.722 145.102,277.518 146.938 C 304.695 164.785,337.411 175.278,367.200 175.701 L 374.200 175.800 374.400 147.100 C 374.592 119.546,374.571 118.400,373.872 118.400 C 368.424 118.400,350.310 111.061,340.815 105.006 C 332.609 99.772,319.200 88.132,319.200 86.241 C 319.200 85.835,318.530 85.282,317.500 84.836 C 309.166 81.230,293.787 65.172,285.881 51.823 C 280.289 42.381,273.600 24.697,273.600 19.357 L 273.600 18.400 246.900 18.406 C 232.215 18.409,219.977 18.554,219.704 18.727 " stroke="none" fill="#040404" fill-rule="evenodd"></path></g></svg>