<svg width="335.09829101562497px" height="122px" xmlns="http://www.w3.org/2000/svg" viewBox="82.45085449218752 14 335.09829101562497 122" style="background: rgba(0, 0, 0, 0);" preserveAspectRatio="xMidYMid"><defs><linearGradient id="editing-shiny-gradient" x1="0.04322727117869957" x2="0.9567727288213004" y1="0.2966316784620999" y2="0.7033683215379001" gradientUnits="objectBoundingBox"><stop offset="0.0" stop-color="#ffb200"></stop><stop offset="0.5" stop-color="#e10057"></stop><stop offset="1.0" stop-color="#5A1A80"></stop></linearGradient><linearGradient id="editing-shiny-gradient2" x1="0" x2="0" y1="0" y2="1"><stop offset="0.2" stop-color="#fff" stop-opacity="0.8"></stop><stop offset="0.8" stop-color="#fff" stop-opacity="0"></stop></linearGradient><filter id="editing-shiny2" x="-100%" y="-100%" width="300%" height="300%"><feMorphology operator="erode" radius="2"></feMorphology></filter><filter id="editing-shiny" x="-100%" y="-100%" width="300%" height="300%"><feFlood flood-color="#fff" result="flood"></feFlood><feConvolveMatrix in="SourceGraphic" result="conv" order="8,8" divisor="1" kernelMatrix="0 0 0 0 0 0 0 0 0 0 0 1 1 0 0 0 0 0 0 1 1 0 0 0 0 0 1 0 0 1 0 0 0 0 1 0 0 1 0 0 0 1 0 0 0 0 1 0 0 1 1 0 0 1 1 0 0 0 0 1 1 0 0 0 "></feConvolveMatrix><feOffset dx="0" dy="4" in="conv" result="offset"></feOffset><feComposite operator="in" in="flood" in2="offset" result="comp"></feComposite><feGaussianBlur in="offset" stdDeviation="3" result="shadow"></feGaussianBlur><feColorMatrix in="shadow" type="matrix" values="0.7 0 0 0 0  0 0.7 0 0 0  0 0 0.7 0 0  0 0 0 0.3 0" result="dark-shadow"></feColorMatrix><feOffset dx="0" dy="4" in="dark-shadow" result="offset-shadow"></feOffset><feOffset dx="0" dy="2" in="conv" result="offset-2"></feOffset><feComposite operator="out" in="offset" in2="offset-2" result="edge-diff"></feComposite><feGaussianBlur in="edge-diff" stdDeviation="1" result="edge-blur"></feGaussianBlur><feColorMatrix in="edge-blur" result="edge-shadow" type="matrix" values="0 0 0 0 0  0 0 0 0 0  0 0 0 0 0  0 0 0 0.5 0"></feColorMatrix><feComposite operator="in" in="edge-shadow" in2="offset" result="edge-shadow-in"></feComposite><feOffset dx="0" dy="1" in="edge-shadow-in" result="edge-shadow-final"></feOffset><feMerge result="out"><feMergeNode in="offset-shadow"></feMergeNode><feMergeNode in="comp"></feMergeNode><feMergeNode in="edge-shadow-final"></feMergeNode><feMergeNode in="SourceGraphic"></feMergeNode></feMerge></filter></defs><g filter="url(#editing-shiny)"><g transform="translate(134.51718074083328, 99.03000068664551)"><path d="M7.68 0L0.64 0L8.32-42.24L22.08-42.24L32.06-13.18L37.38-42.24L44.48-42.18L36.67 0L22.02 0L12.80-27.97L7.68 0ZM61.44-3.52L61.44-3.52L61.44-3.52Q59.46 1.28 53.12 1.28L53.12 1.28L53.12 1.28Q49.86 1.28 47.81-0.96L47.81-0.96L47.81-0.96Q46.08-2.94 46.08-4.93L46.08-4.93L46.08-4.93Q46.08-10.11 48.45-20.22L48.45-20.22L50.82-32.64L63.81-33.92L59.90-13.70L59.90-13.70Q58.82-8.96 58.82-7.30L58.82-7.30L58.82-7.30Q58.82-3.65 61.44-3.52ZM51.97-41.54L51.97-41.54L51.97-41.54Q51.97-44.03 54.05-45.38L54.05-45.38L54.05-45.38Q56.13-46.72 59.14-46.72L59.14-46.72L59.14-46.72Q62.14-46.72 63.97-45.38L63.97-45.38L63.97-45.38Q65.79-44.03 65.79-41.54L65.79-41.54L65.79-41.54Q65.79-39.04 63.78-37.76L63.78-37.76L63.78-37.76Q61.76-36.48 58.75-36.48L58.75-36.48L58.75-36.48Q55.74-36.48 53.86-37.76L53.86-37.76L53.86-37.76Q51.97-39.04 51.97-41.54ZM75.39 0.19L75.39 0.19L75.39 0.19Q73.34 1.28 70.53 1.28L70.53 1.28L70.53 1.28Q67.71 1.28 66.18-0.16L66.18-0.16L66.18-0.16Q64.64-1.60 64.64-4.38L64.64-4.38L64.64-4.38Q64.64-7.17 66.59-9.89L66.59-9.89L66.59-9.89Q68.54-12.61 71.46-14.14L71.46-14.14L71.46-14.14Q74.37-15.68 76.42-16.58L76.42-16.58L72.38-25.86L72.38-25.86Q71.30-28.22 69.25-28.22L69.25-28.22L68.74-28.16L68.54-28.16L68.54-28.16Q68.93-30.40 71.55-32.13L71.55-32.13L71.55-32.13Q74.18-33.92 77.18-33.92L77.18-33.92L77.18-33.92Q82.05-33.92 84.29-29.06L84.29-29.06L84.80-28.03L87.55-21.25L87.55-21.25Q89.28-22.02 90.02-23.46L90.02-23.46L90.02-23.46Q90.75-24.90 90.75-27.74L90.75-27.74L90.75-27.74Q90.75-30.59 89.22-32.38L89.22-32.38L89.22-32.38Q91.65-33.92 94.85-33.92L94.85-33.92L94.85-33.92Q100.61-33.92 100.61-28.35L100.61-28.35L100.61-28.35Q100.61-22.27 92.99-18.75L92.99-18.75L89.15-16.96L92.61-8.06L92.61-8.06Q93.63-5.38 95.49-4.22L95.49-4.22L95.49-4.22Q96.26-3.71 97.15-3.65L97.15-3.65L97.15-3.65Q95.23-0.51 91.07 0.90L91.07 0.90L91.07 0.90Q89.79 1.28 88.06 1.28L88.06 1.28L88.06 1.28Q86.34 1.28 84.35 0.10L84.35 0.10L84.35 0.10Q82.37-1.09 81.66-2.94L81.66-2.94L78.14-12.10L78.14-12.10Q74.56-10.50 74.56-4.67L74.56-4.67L74.56-4.67Q74.56-1.98 75.39 0.19ZM115.97 1.28L115.97 1.28L115.97 1.28Q101.89 1.28 101.89-11.97L101.89-11.97L101.89-11.97Q101.89-21.38 107.07-27.46L107.07-27.46L107.07-27.46Q112.58-33.92 122.11-33.92L122.11-33.92L122.11-33.92Q129.02-33.92 132.54-30.72L132.54-30.72L132.54-30.72Q136.06-27.52 136.06-20.80L136.06-20.80L136.06-20.80Q136.06-10.56 130.56-4.61L130.56-4.61L130.56-4.61Q125.18 1.28 115.97 1.28ZM117.63-26.56L117.63-26.56L117.63-26.56Q116.86-24.83 116.26-22.24L116.26-22.24L116.26-22.24Q115.65-19.65 114.88-15.55L114.88-15.55L114.88-15.55Q114.11-11.46 114.11-6.40L114.11-6.40L114.11-6.40Q114.11-4.74 114.66-3.65L114.66-3.65L114.66-3.65Q115.20-2.56 116.67-2.56L116.67-2.56L116.67-2.56Q118.14-2.56 119.07-3.26L119.07-3.26L119.07-3.26Q120.00-3.97 120.70-5.63L120.70-5.63L120.70-5.63Q121.98-8.58 123.01-14.05L123.01-14.05L123.01-14.05Q124.03-19.52 124.13-21.89L124.13-21.89L124.13-21.89Q124.22-24.26 124.22-26.02L124.22-26.02L124.22-26.02Q124.22-27.78 123.71-28.93L123.71-28.93L123.71-28.93Q123.20-30.08 121.76-30.08L121.76-30.08L121.76-30.08Q120.32-30.08 119.36-29.18L119.36-29.18L119.36-29.18Q118.40-28.29 117.63-26.56ZM159.87-17.98L159.87-17.98L159.87-17.98Q162.18-22.08 162.18-26.24L162.18-26.24L162.18-26.24Q162.18-28.99 160.19-28.99L160.19-28.99L160.19-28.99Q158.66-28.99 157.06-26.37L157.06-26.37L157.06-26.37Q155.39-23.74 154.88-20.35L154.88-20.35L151.55 0L138.30 1.28L144.83-32.64L155.39-33.92L154.24-27.46L154.24-27.46Q157.38-33.92 164.42-33.92L164.42-33.92L164.42-33.92Q168.13-33.92 170.14-32L170.14-32L170.14-32Q172.16-30.08 172.16-26.14L172.16-26.14L172.16-26.14Q172.16-22.21 169.57-19.71L169.57-19.71L169.57-19.71Q166.98-17.22 162.56-17.22L162.56-17.22L162.56-17.22Q160.64-17.22 159.87-17.98ZM175.97-1.92L175.97-1.92L175.97-1.92Q174.46-3.58 173.79-6.21L173.79-6.21L173.79-6.21Q173.12-8.83 173.12-13.12L173.12-13.12L173.12-13.12Q173.12-17.41 174.59-21.31L174.59-21.31L174.59-21.31Q176.06-25.22 178.75-28.03L178.75-28.03L178.75-28.03Q184.26-33.92 193.34-33.92L193.34-33.92L193.34-33.92Q196.61-33.92 198.98-32.83L198.98-32.83L209.92-33.92L205.18-8.96L205.18-8.96Q204.99-8.19 204.99-6.78L204.99-6.78L204.99-6.78Q204.99-5.38 205.86-4.48L205.86-4.48L205.86-4.48Q206.72-3.58 208-3.46L208-3.46L208-3.46Q207.36-1.28 205.02 0L205.02 0L205.02 0Q202.69 1.28 200.06 1.28L200.06 1.28L200.06 1.28Q197.44 1.28 195.68 0.29L195.68 0.29L195.68 0.29Q193.92-0.70 193.41-2.37L193.41-2.37L193.41-2.37Q192.38-0.77 190.21 0.26L190.21 0.26L190.21 0.26Q188.03 1.28 185.12 1.28L185.12 1.28L185.12 1.28Q182.21 1.28 179.84 0.51L179.84 0.51L179.84 0.51Q177.47-0.26 175.97-1.92ZM189.47-27.90L189.47-27.90L189.47-27.90Q188.74-26.75 188.10-24.80L188.10-24.80L188.10-24.80Q187.46-22.85 186.40-17.63L186.40-17.63L186.40-17.63Q185.34-12.42 185.34-8.70L185.34-8.70L185.34-8.70Q185.34-4.99 185.92-3.90L185.92-3.90L185.92-3.90Q186.50-2.82 187.52-2.82L187.52-2.82L187.52-2.82Q189.57-2.82 191.07-4.77L191.07-4.77L191.07-4.77Q192.58-6.72 193.15-10.18L193.15-10.18L196.54-28.93L196.54-28.93Q195.20-30.08 193.63-30.08L193.63-30.08L193.63-30.08Q192.06-30.08 191.14-29.57L191.14-29.57L191.14-29.57Q190.21-29.06 189.47-27.90ZM211.65-3.78L211.65-3.78L211.65-3.78Q211.65-6.21 213.47-7.52L213.47-7.52L213.47-7.52Q215.30-8.83 217.98-8.83L217.98-8.83L217.98-8.83Q220.67-8.83 222.37-7.52L222.37-7.52L222.37-7.52Q224.06-6.21 224.06-3.78L224.06-3.78L224.06-3.78Q224.06-1.34 222.18 0L222.18 0L222.18 0Q220.29 1.34 217.60 1.34L217.60 1.34L217.60 1.34Q214.91 1.34 213.28 0L213.28 0L213.28 0Q211.65-1.34 211.65-3.78ZM215.10-15.81L215.10-15.81L215.10-15.81Q215.10-16.26 215.23-16.90L215.23-16.90L220.22-42.62L220.22-42.62Q222.59-43.52 225.41-43.52L225.41-43.52L225.41-43.52Q228.22-43.52 229.70-41.73L229.70-41.73L229.70-41.73Q231.17-39.94 231.17-37.28L231.17-37.28L231.17-37.28Q231.17-34.62 230.14-31.65L230.14-31.65L230.14-31.65Q229.12-28.67 227.87-25.66L227.87-25.66L227.87-25.66Q226.62-22.66 225.57-19.55L225.57-19.55L225.57-19.55Q224.51-16.45 224.45-13.18L224.45-13.18L224.45-13.18Q222.98-11.52 220.42-11.52L220.42-11.52L220.42-11.52Q217.86-11.52 216.48-12.70L216.48-12.70L216.48-12.70Q215.10-13.89 215.10-15.81Z" fill="url(#editing-shiny-gradient)"></path></g></g><g filter="url(#editing-shiny2)"><g transform="translate(134.81616908311844, 99.03000068664551)"><path d="M7.68 0L0.64 0L8.32-42.24L22.08-42.24L32.06-13.18L37.38-42.24L44.48-42.18L36.67 0L22.02 0L12.80-27.97L7.68 0ZM61.44-3.52L61.44-3.52L61.44-3.52Q59.46 1.28 53.12 1.28L53.12 1.28L53.12 1.28Q49.86 1.28 47.81-0.96L47.81-0.96L47.81-0.96Q46.08-2.94 46.08-4.93L46.08-4.93L46.08-4.93Q46.08-10.11 48.45-20.22L48.45-20.22L50.82-32.64L63.81-33.92L59.90-13.70L59.90-13.70Q58.82-8.96 58.82-7.30L58.82-7.30L58.82-7.30Q58.82-3.65 61.44-3.52ZM51.97-41.54L51.97-41.54L51.97-41.54Q51.97-44.03 54.05-45.38L54.05-45.38L54.05-45.38Q56.13-46.72 59.14-46.72L59.14-46.72L59.14-46.72Q62.14-46.72 63.97-45.38L63.97-45.38L63.97-45.38Q65.79-44.03 65.79-41.54L65.79-41.54L65.79-41.54Q65.79-39.04 63.78-37.76L63.78-37.76L63.78-37.76Q61.76-36.48 58.75-36.48L58.75-36.48L58.75-36.48Q55.74-36.48 53.86-37.76L53.86-37.76L53.86-37.76Q51.97-39.04 51.97-41.54ZM75.39 0.19L75.39 0.19L75.39 0.19Q73.34 1.28 70.53 1.28L70.53 1.28L70.53 1.28Q67.71 1.28 66.18-0.16L66.18-0.16L66.18-0.16Q64.64-1.60 64.64-4.38L64.64-4.38L64.64-4.38Q64.64-7.17 66.59-9.89L66.59-9.89L66.59-9.89Q68.54-12.61 71.46-14.14L71.46-14.14L71.46-14.14Q74.37-15.68 76.42-16.58L76.42-16.58L72.38-25.86L72.38-25.86Q71.30-28.22 69.25-28.22L69.25-28.22L68.74-28.16L68.54-28.16L68.54-28.16Q68.93-30.40 71.55-32.13L71.55-32.13L71.55-32.13Q74.18-33.92 77.18-33.92L77.18-33.92L77.18-33.92Q82.05-33.92 84.29-29.06L84.29-29.06L84.80-28.03L87.55-21.25L87.55-21.25Q89.28-22.02 90.02-23.46L90.02-23.46L90.02-23.46Q90.75-24.90 90.75-27.74L90.75-27.74L90.75-27.74Q90.75-30.59 89.22-32.38L89.22-32.38L89.22-32.38Q91.65-33.92 94.85-33.92L94.85-33.92L94.85-33.92Q100.61-33.92 100.61-28.35L100.61-28.35L100.61-28.35Q100.61-22.27 92.99-18.75L92.99-18.75L89.15-16.96L92.61-8.06L92.61-8.06Q93.63-5.38 95.49-4.22L95.49-4.22L95.49-4.22Q96.26-3.71 97.15-3.65L97.15-3.65L97.15-3.65Q95.23-0.51 91.07 0.90L91.07 0.90L91.07 0.90Q89.79 1.28 88.06 1.28L88.06 1.28L88.06 1.28Q86.34 1.28 84.35 0.10L84.35 0.10L84.35 0.10Q82.37-1.09 81.66-2.94L81.66-2.94L78.14-12.10L78.14-12.10Q74.56-10.50 74.56-4.67L74.56-4.67L74.56-4.67Q74.56-1.98 75.39 0.19ZM115.97 1.28L115.97 1.28L115.97 1.28Q101.89 1.28 101.89-11.97L101.89-11.97L101.89-11.97Q101.89-21.38 107.07-27.46L107.07-27.46L107.07-27.46Q112.58-33.92 122.11-33.92L122.11-33.92L122.11-33.92Q129.02-33.92 132.54-30.72L132.54-30.72L132.54-30.72Q136.06-27.52 136.06-20.80L136.06-20.80L136.06-20.80Q136.06-10.56 130.56-4.61L130.56-4.61L130.56-4.61Q125.18 1.28 115.97 1.28ZM117.63-26.56L117.63-26.56L117.63-26.56Q116.86-24.83 116.26-22.24L116.26-22.24L116.26-22.24Q115.65-19.65 114.88-15.55L114.88-15.55L114.88-15.55Q114.11-11.46 114.11-6.40L114.11-6.40L114.11-6.40Q114.11-4.74 114.66-3.65L114.66-3.65L114.66-3.65Q115.20-2.56 116.67-2.56L116.67-2.56L116.67-2.56Q118.14-2.56 119.07-3.26L119.07-3.26L119.07-3.26Q120.00-3.97 120.70-5.63L120.70-5.63L120.70-5.63Q121.98-8.58 123.01-14.05L123.01-14.05L123.01-14.05Q124.03-19.52 124.13-21.89L124.13-21.89L124.13-21.89Q124.22-24.26 124.22-26.02L124.22-26.02L124.22-26.02Q124.22-27.78 123.71-28.93L123.71-28.93L123.71-28.93Q123.20-30.08 121.76-30.08L121.76-30.08L121.76-30.08Q120.32-30.08 119.36-29.18L119.36-29.18L119.36-29.18Q118.40-28.29 117.63-26.56ZM159.87-17.98L159.87-17.98L159.87-17.98Q162.18-22.08 162.18-26.24L162.18-26.24L162.18-26.24Q162.18-28.99 160.19-28.99L160.19-28.99L160.19-28.99Q158.66-28.99 157.06-26.37L157.06-26.37L157.06-26.37Q155.39-23.74 154.88-20.35L154.88-20.35L151.55 0L138.30 1.28L144.83-32.64L155.39-33.92L154.24-27.46L154.24-27.46Q157.38-33.92 164.42-33.92L164.42-33.92L164.42-33.92Q168.13-33.92 170.14-32L170.14-32L170.14-32Q172.16-30.08 172.16-26.14L172.16-26.14L172.16-26.14Q172.16-22.21 169.57-19.71L169.57-19.71L169.57-19.71Q166.98-17.22 162.56-17.22L162.56-17.22L162.56-17.22Q160.64-17.22 159.87-17.98ZM175.97-1.92L175.97-1.92L175.97-1.92Q174.46-3.58 173.79-6.21L173.79-6.21L173.79-6.21Q173.12-8.83 173.12-13.12L173.12-13.12L173.12-13.12Q173.12-17.41 174.59-21.31L174.59-21.31L174.59-21.31Q176.06-25.22 178.75-28.03L178.75-28.03L178.75-28.03Q184.26-33.92 193.34-33.92L193.34-33.92L193.34-33.92Q196.61-33.92 198.98-32.83L198.98-32.83L209.92-33.92L205.18-8.96L205.18-8.96Q204.99-8.19 204.99-6.78L204.99-6.78L204.99-6.78Q204.99-5.38 205.86-4.48L205.86-4.48L205.86-4.48Q206.72-3.58 208-3.46L208-3.46L208-3.46Q207.36-1.28 205.02 0L205.02 0L205.02 0Q202.69 1.28 200.06 1.28L200.06 1.28L200.06 1.28Q197.44 1.28 195.68 0.29L195.68 0.29L195.68 0.29Q193.92-0.70 193.41-2.37L193.41-2.37L193.41-2.37Q192.38-0.77 190.21 0.26L190.21 0.26L190.21 0.26Q188.03 1.28 185.12 1.28L185.12 1.28L185.12 1.28Q182.21 1.28 179.84 0.51L179.84 0.51L179.84 0.51Q177.47-0.26 175.97-1.92ZM189.47-27.90L189.47-27.90L189.47-27.90Q188.74-26.75 188.10-24.80L188.10-24.80L188.10-24.80Q187.46-22.85 186.40-17.63L186.40-17.63L186.40-17.63Q185.34-12.42 185.34-8.70L185.34-8.70L185.34-8.70Q185.34-4.99 185.92-3.90L185.92-3.90L185.92-3.90Q186.50-2.82 187.52-2.82L187.52-2.82L187.52-2.82Q189.57-2.82 191.07-4.77L191.07-4.77L191.07-4.77Q192.58-6.72 193.15-10.18L193.15-10.18L196.54-28.93L196.54-28.93Q195.20-30.08 193.63-30.08L193.63-30.08L193.63-30.08Q192.06-30.08 191.14-29.57L191.14-29.57L191.14-29.57Q190.21-29.06 189.47-27.90ZM211.65-3.78L211.65-3.78L211.65-3.78Q211.65-6.21 213.47-7.52L213.47-7.52L213.47-7.52Q215.30-8.83 217.98-8.83L217.98-8.83L217.98-8.83Q220.67-8.83 222.37-7.52L222.37-7.52L222.37-7.52Q224.06-6.21 224.06-3.78L224.06-3.78L224.06-3.78Q224.06-1.34 222.18 0L222.18 0L222.18 0Q220.29 1.34 217.60 1.34L217.60 1.34L217.60 1.34Q214.91 1.34 213.28 0L213.28 0L213.28 0Q211.65-1.34 211.65-3.78ZM215.10-15.81L215.10-15.81L215.10-15.81Q215.10-16.26 215.23-16.90L215.23-16.90L220.22-42.62L220.22-42.62Q222.59-43.52 225.41-43.52L225.41-43.52L225.41-43.52Q228.22-43.52 229.70-41.73L229.70-41.73L229.70-41.73Q231.17-39.94 231.17-37.28L231.17-37.28L231.17-37.28Q231.17-34.62 230.14-31.65L230.14-31.65L230.14-31.65Q229.12-28.67 227.87-25.66L227.87-25.66L227.87-25.66Q226.62-22.66 225.57-19.55L225.57-19.55L225.57-19.55Q224.51-16.45 224.45-13.18L224.45-13.18L224.45-13.18Q222.98-11.52 220.42-11.52L220.42-11.52L220.42-11.52Q217.86-11.52 216.48-12.70L216.48-12.70L216.48-12.70Q215.10-13.89 215.10-15.81Z" fill="url(#editing-shiny-gradient2)"></path></g></g><style>text {
  font-size: 64px;
  font-family: Arial Black;
  dominant-baseline: central;
  text-anchor: middle;
}</style></svg>